<svg width="181" height="31" viewBox="0 0 181 31" fill="none" xmlns="http://www.w3.org/2000/svg">
<g clip-path="url(#clip0_37_36)">
<g clip-path="url(#clip1_37_36)">
<g clip-path="url(#clip2_37_36)">
<g clip-path="url(#clip3_37_36)">
<g clip-path="url(#clip4_37_36)">
<path d="M41.5696 2.45708L35.6905 19.4639H33.2417L40.0423 0.815149H41.6047L41.5696 2.45708ZM46.4973 19.4639L40.5931 2.45708L40.5681 0.815149H42.1205L48.9311 19.4639H46.4973ZM46.2018 12.5762V14.5853H36.1913V12.5762H46.2018ZM62.412 17.5439V19.4639H50.7389V17.7747L56.5679 10.971C57.2957 10.1351 57.8566 9.4252 58.2505 8.84118C58.6445 8.25715 58.9199 7.72907 59.0768 7.25695C59.2304 6.78833 59.3072 6.31097 59.3072 5.82486C59.3072 4.9016 59.0401 4.11299 58.5059 3.45902C57.9718 2.80854 57.2122 2.4833 56.2274 2.4833C55.4295 2.4833 54.7668 2.64417 54.2393 2.96591C53.7151 3.29115 53.3245 3.74054 53.0675 4.31408C52.8104 4.88412 52.6819 5.54508 52.6819 6.29698H50.3933C50.3933 5.24782 50.6137 4.28785 51.0543 3.41705C51.495 2.54625 52.1494 1.85206 53.0174 1.33448C53.8854 0.816896 54.9554 0.558105 56.2274 0.558105C57.9067 0.558105 59.2204 1.01624 60.1685 1.9325C61.12 2.84526 61.5957 4.04829 61.5957 5.54159C61.5957 6.27599 61.4438 7.01565 61.14 7.76055C60.8395 8.50195 60.4372 9.2381 59.9331 9.96902C59.4257 10.6964 58.8665 11.4064 58.2555 12.0988L53.4881 17.5439H62.412ZM76.7042 17.4652V19.4639H67.3046V17.4652H76.7042ZM67.7653 0.815149V19.4639H65.3966V0.815149H67.7653ZM75.4572 8.83593V10.8293H67.3046V8.83593H75.4572ZM76.584 0.815149V2.82952H67.3046V0.815149H76.584ZM88.207 0.815149V19.4639H85.8333V0.815149H88.207ZM95.6536 9.21887V11.2175H87.6912V9.21887H95.6536ZM96.8604 0.815149V2.82952H87.6912V0.815149H96.8604ZM102.219 0.815149V19.4639H99.8451V0.815149H102.219ZM113.086 0.815149V19.4639H110.737V0.815149H113.086ZM118.794 0.815149V2.82952H105.038V0.815149H118.794ZM135.125 0.815149V19.4639H132.741L123.807 5.04324V19.4639H121.434V0.815149H123.807L132.781 15.2777V0.815149H135.125ZM150.604 17.4652V19.4639H141.199V17.4652H150.604ZM141.665 0.815149V19.4639H139.296V0.815149H141.665ZM149.357 8.83593V10.8293H141.199V8.83593H149.357ZM150.479 0.815149V2.82952H141.199V0.815149H150.479ZM162.998 14.7532C162.998 14.1621 162.88 13.662 162.643 13.2529C162.409 12.8437 161.985 12.473 161.371 12.1408C160.76 11.805 159.892 11.4676 158.767 11.1283C157.889 10.8625 157.097 10.5618 156.393 10.2261C155.685 9.88683 155.079 9.50039 154.575 9.06674C154.071 8.6296 153.684 8.1295 153.413 7.56645C153.146 7.00341 153.013 6.35818 153.013 5.63076C153.013 4.65855 153.263 3.7895 153.764 3.02362C154.265 2.26123 154.967 1.65972 155.872 1.21907C156.777 0.778429 157.837 0.558105 159.052 0.558105C160.394 0.558105 161.534 0.825641 162.472 1.36071C163.41 1.89578 164.123 2.59172 164.611 3.44852C165.101 4.30533 165.347 5.22159 165.347 6.19731H162.963C162.963 5.49787 162.823 4.87362 162.542 4.32457C162.259 3.77901 161.828 3.3506 161.25 3.03935C160.673 2.72811 159.94 2.57248 159.052 2.57248C158.221 2.57248 157.533 2.70363 156.989 2.96591C156.448 3.2317 156.047 3.59191 155.787 4.04654C155.527 4.49768 155.396 5.01351 155.396 5.59404C155.396 6.11512 155.538 6.5785 155.822 6.98417C156.109 7.38985 156.558 7.7553 157.169 8.08054C157.78 8.40228 158.57 8.70828 159.538 8.99855C160.883 9.39373 161.988 9.85186 162.853 10.3729C163.718 10.894 164.355 11.5078 164.766 12.2142C165.176 12.9241 165.382 13.7617 165.382 14.7269C165.382 15.7341 165.125 16.6137 164.611 17.3655C164.1 18.1139 163.379 18.6945 162.447 19.1071C161.519 19.5163 160.427 19.7209 159.172 19.7209C158.348 19.7209 157.538 19.6002 156.743 19.3589C155.949 19.1211 155.228 18.7627 154.58 18.2836C153.932 17.8079 153.415 17.2169 153.028 16.5105C152.64 15.8076 152.447 14.991 152.447 14.0607H154.82C154.82 14.7007 154.939 15.2515 155.176 15.7131C155.41 16.1748 155.732 16.5542 156.142 16.8515C156.55 17.1487 157.014 17.369 157.535 17.5124C158.055 17.6523 158.601 17.7223 159.172 17.7223C159.997 17.7223 160.691 17.5999 161.255 17.3551C161.823 17.1138 162.255 16.771 162.552 16.3269C162.85 15.8827 162.998 15.3582 162.998 14.7532ZM177.866 14.7532C177.866 14.1621 177.748 13.662 177.511 13.2529C177.274 12.8437 176.85 12.473 176.239 12.1408C175.628 11.805 174.76 11.4676 173.635 11.1283C172.753 10.8625 171.96 10.5618 171.256 10.2261C170.552 9.88683 169.947 9.50039 169.443 9.06674C168.936 8.6296 168.548 8.1295 168.281 7.56645C168.011 7.00341 167.876 6.35818 167.876 5.63076C167.876 4.65855 168.126 3.7895 168.627 3.02362C169.128 2.26123 169.83 1.65972 170.735 1.21907C171.64 0.778429 172.7 0.558105 173.915 0.558105C175.26 0.558105 176.402 0.825641 177.34 1.36071C178.275 1.89578 178.988 2.59172 179.479 3.44852C179.966 4.30533 180.21 5.22159 180.21 6.19731H177.826C177.826 5.49787 177.686 4.87362 177.405 4.32457C177.125 3.77901 176.696 3.3506 176.118 3.03935C175.538 2.72811 174.803 2.57248 173.915 2.57248C173.084 2.57248 172.398 2.70363 171.857 2.96591C171.313 3.2317 170.91 3.59191 170.65 4.04654C170.39 4.49768 170.259 5.01351 170.259 5.59404C170.259 6.11512 170.403 6.5785 170.69 6.98417C170.974 7.38985 171.421 7.7553 172.032 8.08054C172.643 8.40228 173.434 8.70828 174.406 8.99855C175.751 9.39373 176.855 9.85186 177.716 10.3729C178.581 10.894 179.218 11.5078 179.629 12.2142C180.043 12.9241 180.25 13.7617 180.25 14.7269C180.25 15.7341 179.993 16.6137 179.479 17.3655C178.965 18.1139 178.243 18.6945 177.315 19.1071C176.387 19.5163 175.296 19.7209 174.04 19.7209C173.216 19.7209 172.406 19.6002 171.611 19.3589C170.817 19.1211 170.096 18.7627 169.448 18.2836C168.8 17.8079 168.283 17.2169 167.896 16.5105C167.508 15.8076 167.315 14.991 167.315 14.0607H169.683C169.683 14.7007 169.802 15.2515 170.039 15.7131C170.276 16.1748 170.598 16.5542 171.006 16.8515C171.413 17.1487 171.877 17.369 172.398 17.5124C172.922 17.6523 173.469 17.7223 174.04 17.7223C174.862 17.7223 175.556 17.5999 176.123 17.3551C176.688 17.1138 177.12 16.771 177.42 16.3269C177.718 15.8827 177.866 15.3582 177.866 14.7532Z" fill="white"/>
</g>
</g>
<g clip-path="url(#clip5_37_36)">
<g clip-path="url(#clip6_37_36)">
<path d="M110.426 24.4142V24.3372H111.469V24.4142H111.432C111.393 24.4142 111.359 24.4281 111.33 24.4558C111.3 24.4845 111.275 24.5194 111.253 24.5604C111.231 24.6015 111.214 24.6451 111.205 24.6913C111.195 24.7375 111.19 24.7785 111.19 24.8144V27.8547C111.19 28.0548 111.21 28.2395 111.249 28.4088C111.288 28.5782 111.354 28.7244 111.447 28.8475C111.54 28.9707 111.663 29.0666 111.814 29.1354C111.966 29.2052 112.152 29.2401 112.373 29.2401C112.618 29.2401 112.814 29.199 112.961 29.1169C113.108 29.0348 113.22 28.9281 113.299 28.7967C113.377 28.6664 113.428 28.5191 113.453 28.3549C113.477 28.1907 113.49 28.0291 113.49 27.87V24.8144C113.49 24.7785 113.485 24.7375 113.475 24.6913C113.465 24.6451 113.45 24.6015 113.428 24.5604C113.405 24.5194 113.38 24.4845 113.35 24.4558C113.321 24.4281 113.289 24.4142 113.255 24.4142H113.218V24.3372H114.019V24.4142H113.982C113.943 24.4142 113.91 24.4281 113.884 24.4558C113.856 24.4845 113.832 24.5194 113.81 24.5604C113.788 24.6015 113.771 24.6451 113.762 24.6913C113.752 24.7375 113.747 24.7785 113.747 24.8144V27.847C113.747 28.1805 113.708 28.4535 113.629 28.6659C113.551 28.8794 113.443 29.0477 113.306 29.1708C113.169 29.294 113.008 29.3786 112.824 29.4248C112.641 29.471 112.446 29.4941 112.241 29.4941C112.02 29.4941 111.816 29.4699 111.628 29.4217C111.439 29.3725 111.276 29.2863 111.138 29.1631C111.001 29.04 110.894 28.8717 110.815 28.6582C110.737 28.4458 110.698 28.1779 110.698 27.8547V24.8144C110.698 24.7785 110.693 24.7375 110.683 24.6913C110.673 24.6451 110.657 24.6015 110.636 24.5604C110.613 24.5194 110.587 24.4845 110.558 24.4558C110.529 24.4281 110.497 24.4142 110.463 24.4142H110.426ZM114.717 29.4171V29.3401H114.753C114.793 29.3401 114.827 29.3258 114.856 29.297C114.886 29.2693 114.911 29.2349 114.933 29.1939C114.955 29.1528 114.972 29.1092 114.984 29.063C114.997 29.0169 115.003 28.9733 115.003 28.9322V24.8144C115.003 24.7785 114.997 24.7375 114.984 24.6913C114.972 24.6451 114.955 24.6015 114.933 24.5604C114.911 24.5194 114.886 24.4845 114.856 24.4558C114.827 24.4281 114.793 24.4142 114.753 24.4142H114.717V24.3372H115.775V24.4142H115.738C115.699 24.4142 115.665 24.4281 115.635 24.4558C115.606 24.4845 115.581 24.5194 115.562 24.5604C115.542 24.6015 115.526 24.6451 115.513 24.6913C115.501 24.7375 115.496 24.7785 115.496 24.8144V29.1323H117.105C117.198 29.1323 117.279 29.1092 117.347 29.063C117.416 29.0169 117.473 28.9589 117.519 28.8891C117.566 28.8203 117.6 28.7459 117.622 28.6659C117.645 28.5869 117.656 28.514 117.656 28.4473H117.729V29.4171H114.717ZM119.382 29.3401H119.419V29.4171H118.376V29.3401H118.413C118.452 29.3401 118.486 29.3247 118.515 29.294C118.545 29.2632 118.57 29.2272 118.592 29.1862C118.614 29.1451 118.631 29.1 118.64 29.0507C118.65 29.0025 118.655 28.9579 118.655 28.9168V24.622H117.803C117.724 24.622 117.656 24.64 117.597 24.6759C117.538 24.7118 117.489 24.7565 117.45 24.8098C117.411 24.8642 117.381 24.9232 117.362 24.9868C117.342 25.0515 117.332 25.1146 117.332 25.1762H117.259V24.3372H120.558V25.1762H120.485C120.485 25.1146 120.475 25.0515 120.455 24.9868C120.436 24.9232 120.406 24.8642 120.367 24.8098C120.328 24.7565 120.279 24.7118 120.22 24.6759C120.161 24.64 120.093 24.622 120.014 24.622H119.147V28.9168C119.147 28.9579 119.152 29.0025 119.162 29.0507C119.172 29.1 119.188 29.1451 119.209 29.1862C119.232 29.2272 119.256 29.2632 119.283 29.294C119.31 29.3247 119.343 29.3401 119.382 29.3401ZM120.99 24.4142V24.3372H122.041V24.4142H122.004C121.97 24.4142 121.938 24.4281 121.909 24.4558C121.879 24.4845 121.855 24.5179 121.835 24.5558C121.815 24.5948 121.8 24.6384 121.788 24.6867C121.775 24.7359 121.769 24.7785 121.769 24.8144V28.9168C121.769 28.9579 121.774 29.0025 121.784 29.0507C121.793 29.1 121.81 29.1451 121.832 29.1862C121.854 29.2272 121.878 29.2632 121.906 29.294C121.932 29.3247 121.965 29.3401 122.004 29.3401H122.041V29.4171H120.99V29.3401H121.027C121.066 29.3401 121.1 29.3258 121.13 29.297C121.159 29.2693 121.185 29.2334 121.208 29.1893C121.229 29.1462 121.245 29.1 121.255 29.0507C121.264 29.0025 121.269 28.9579 121.269 28.9168V24.8144C121.269 24.7785 121.264 24.7375 121.255 24.6913C121.245 24.6451 121.229 24.6015 121.208 24.5604C121.185 24.5194 121.159 24.4845 121.13 24.4558C121.1 24.4281 121.066 24.4142 121.027 24.4142H120.99ZM126.699 29.4171V29.3401H126.736C126.77 29.3401 126.802 29.3247 126.831 29.294C126.861 29.2632 126.887 29.2272 126.909 29.1862C126.931 29.1451 126.947 29.1 126.956 29.0507C126.966 29.0025 126.971 28.9579 126.971 28.9168V24.8683L125.075 29.5018L123.275 25.1069V28.9168C123.275 28.9579 123.28 29.0025 123.29 29.0507C123.3 29.1 123.316 29.1451 123.338 29.1862C123.36 29.2272 123.385 29.2632 123.415 29.294C123.444 29.3247 123.478 29.3401 123.518 29.3401H123.554V29.4171H122.754V29.3401H122.79C122.825 29.3401 122.856 29.3247 122.886 29.294C122.915 29.2632 122.94 29.2272 122.959 29.1862C122.979 29.1451 122.994 29.1 123.003 29.0507C123.013 29.0025 123.018 28.9579 123.018 28.9168V24.8144C123.018 24.7785 123.013 24.7375 123.003 24.6913C122.994 24.6451 122.979 24.6015 122.959 24.5604C122.94 24.5194 122.915 24.4845 122.886 24.4558C122.856 24.4281 122.825 24.4142 122.79 24.4142H122.754V24.3372H123.503L125.208 28.5474L126.912 24.3372H127.743V24.4142H127.706C127.667 24.4142 127.632 24.4281 127.603 24.4558C127.574 24.4845 127.548 24.5194 127.527 24.5604C127.504 24.6015 127.488 24.6451 127.478 24.6913C127.468 24.7375 127.463 24.7785 127.463 24.8144V28.9168C127.463 28.9579 127.468 29.0025 127.478 29.0507C127.488 29.1 127.504 29.1451 127.527 29.1862C127.548 29.2272 127.574 29.2632 127.603 29.294C127.632 29.3247 127.667 29.3401 127.706 29.3401H127.743V29.4171H126.699ZM131.262 29.4171V29.3401H131.299C131.416 29.3401 131.475 29.2837 131.475 29.1708C131.475 29.1298 131.468 29.0861 131.453 29.04L130.792 27.1696H129.506L128.867 29.0092C128.852 29.0502 128.845 29.0887 128.845 29.1246C128.845 29.1913 128.862 29.2437 128.896 29.2816C128.93 29.3206 128.967 29.3401 129.006 29.3401H129.043V29.4171H128.227V29.3401H128.264C128.328 29.3401 128.39 29.3001 128.451 29.2201C128.513 29.141 128.563 29.0477 128.602 28.9399L130.285 24.2449L131.931 28.8937C131.965 28.9963 132.012 29.0964 132.073 29.1939C132.135 29.2914 132.215 29.3401 132.313 29.3401H132.349V29.4171H131.262ZM130.145 25.2993L129.579 26.908H130.711L130.145 25.2993ZM133.966 29.3401H134.003V29.4171H132.959V29.3401H132.996C133.035 29.3401 133.07 29.3247 133.099 29.294C133.128 29.2632 133.154 29.2272 133.175 29.1862C133.198 29.1451 133.214 29.1 133.224 29.0507C133.234 29.0025 133.239 28.9579 133.239 28.9168V24.622H132.386C132.308 24.622 132.239 24.64 132.18 24.6759C132.122 24.7118 132.073 24.7565 132.034 24.8098C131.994 24.8642 131.965 24.9232 131.945 24.9868C131.926 25.0515 131.916 25.1146 131.916 25.1762H131.842V24.3372H135.142V25.1762H135.068C135.068 25.1146 135.058 25.0515 135.039 24.9868C135.019 24.9232 134.99 24.8642 134.95 24.8098C134.911 24.7565 134.862 24.7118 134.804 24.6759C134.745 24.64 134.676 24.622 134.598 24.622H133.731V28.9168C133.731 28.9579 133.736 29.0025 133.745 29.0507C133.755 29.1 133.771 29.1451 133.793 29.1862C133.815 29.2272 133.84 29.2632 133.866 29.294C133.893 29.3247 133.927 29.3401 133.966 29.3401ZM135.544 29.4171V29.3401H135.581C135.62 29.3401 135.654 29.3258 135.684 29.297C135.713 29.2693 135.739 29.2349 135.762 29.1939C135.783 29.1528 135.8 29.1092 135.813 29.063C135.825 29.0169 135.831 28.9733 135.831 28.9322V24.8144C135.831 24.7785 135.825 24.7375 135.813 24.6913C135.8 24.6451 135.783 24.6015 135.762 24.5604C135.739 24.5194 135.713 24.4845 135.684 24.4558C135.654 24.4281 135.62 24.4142 135.581 24.4142H135.544V24.3372H138.373V25.053H138.3C138.29 24.935 138.246 24.8309 138.167 24.7405C138.089 24.6513 137.966 24.6066 137.8 24.6066H136.323V26.5539H137.543C137.655 26.5539 137.75 26.518 137.826 26.4461C137.902 26.3743 137.939 26.2896 137.939 26.1922H138.013V27.1542H137.939C137.939 27.0619 137.903 26.9824 137.829 26.9156C137.756 26.8489 137.66 26.8156 137.543 26.8156H136.323V29.1477H137.932C138.025 29.1477 138.106 29.1246 138.175 29.0784C138.243 29.0323 138.301 28.9768 138.348 28.9122C138.394 28.8486 138.428 28.7793 138.451 28.7044C138.472 28.6305 138.483 28.5679 138.483 28.5166H138.557V29.4171H135.544ZM144.178 26.8156V26.7386H145.228V26.8156H145.192C145.152 26.8156 145.118 26.8294 145.089 26.8572C145.059 26.8859 145.035 26.9208 145.015 26.9618C144.996 27.0029 144.979 27.0465 144.967 27.0927C144.955 27.1389 144.949 27.1799 144.949 27.2158V29.2786C144.861 29.3145 144.76 29.3453 144.648 29.3709C144.535 29.3966 144.418 29.4186 144.295 29.4371C144.173 29.4546 144.048 29.4684 143.92 29.4787C143.793 29.4889 143.675 29.4941 143.568 29.4941C143.127 29.4941 142.742 29.4171 142.414 29.2632C142.086 29.1092 141.814 28.9076 141.599 28.6582C141.383 28.4098 141.222 28.1292 141.117 27.8162C141.012 27.5032 140.959 27.1876 140.959 26.8695C140.959 26.5513 141.012 26.2358 141.117 25.9228C141.222 25.6098 141.384 25.3301 141.602 25.0838C141.82 24.8375 142.094 24.6389 142.424 24.4881C142.756 24.3362 143.149 24.2603 143.604 24.2603C143.776 24.2603 143.935 24.2757 144.082 24.3064C144.229 24.3372 144.359 24.3655 144.471 24.3911C144.535 24.4065 144.59 24.4204 144.636 24.4327C144.683 24.446 144.724 24.4527 144.758 24.4527H144.824V25.2685H144.751C144.721 25.1095 144.663 24.9812 144.577 24.8837C144.492 24.7862 144.393 24.7118 144.28 24.6605C144.168 24.6092 144.049 24.5743 143.923 24.5558C143.799 24.5384 143.683 24.5297 143.575 24.5297C143.208 24.5297 142.889 24.5974 142.62 24.7328C142.35 24.8693 142.13 25.0453 141.959 25.2608C141.787 25.4764 141.66 25.7185 141.577 25.9874C141.493 26.2573 141.452 26.5257 141.452 26.7925C141.452 27.0901 141.506 27.3836 141.613 27.673C141.721 27.9634 141.873 28.2226 142.069 28.4504C142.265 28.6792 142.501 28.864 142.777 29.0046C143.054 29.1462 143.362 29.217 143.7 29.217C143.793 29.217 143.908 29.2052 144.045 29.1816C144.182 29.159 144.32 29.1067 144.457 29.0246V27.2158C144.457 27.1799 144.452 27.1389 144.442 27.0927C144.432 27.0465 144.416 27.0029 144.394 26.9618C144.372 26.9208 144.347 26.8859 144.317 26.8572C144.288 26.8294 144.253 26.8156 144.214 26.8156H144.178ZM145.25 24.4142V24.3372H146.264V24.4142C146.23 24.4193 146.198 24.4347 146.169 24.4604C146.139 24.486 146.125 24.5245 146.125 24.5758C146.125 24.6015 146.132 24.6297 146.147 24.6605L147.249 26.6847L148.307 24.7683C148.326 24.7272 148.34 24.6964 148.347 24.6759C148.354 24.6554 148.358 24.6297 148.358 24.5989C148.349 24.5168 148.32 24.4655 148.273 24.445C148.227 24.4245 148.199 24.4142 148.189 24.4142V24.3372H148.976V24.4142C148.902 24.4142 148.827 24.4614 148.751 24.5558C148.675 24.6513 148.611 24.7477 148.557 24.8452L147.41 26.9233V28.9168C147.41 28.9579 147.416 29.0015 147.428 29.0477C147.441 29.0938 147.457 29.1385 147.477 29.1816C147.496 29.2257 147.521 29.2632 147.55 29.294C147.579 29.3247 147.614 29.3401 147.653 29.3401H147.69V29.4171H146.639V29.3401H146.676C146.715 29.3401 146.749 29.3258 146.779 29.297C146.808 29.2693 146.833 29.2334 146.855 29.1893C146.878 29.1462 146.894 29.1 146.904 29.0507C146.913 29.0025 146.918 28.9579 146.918 28.9168V26.9926L145.735 24.8683C145.711 24.8273 145.681 24.7811 145.647 24.7298C145.613 24.6785 145.576 24.6297 145.537 24.5835C145.498 24.5373 145.456 24.4973 145.412 24.4635C145.368 24.4306 145.326 24.4142 145.287 24.4142H145.25ZM153.316 29.4171V29.3401H153.353C153.387 29.3401 153.419 29.3247 153.449 29.294C153.478 29.2632 153.504 29.2272 153.527 29.1862C153.548 29.1451 153.564 29.1 153.574 29.0507C153.583 29.0025 153.588 28.9579 153.588 28.9168V24.8683L151.693 29.5018L149.893 25.1069V28.9168C149.893 28.9579 149.897 29.0025 149.907 29.0507C149.917 29.1 149.933 29.1451 149.956 29.1862C149.977 29.2272 150.003 29.2632 150.032 29.294C150.061 29.3247 150.096 29.3401 150.135 29.3401H150.172V29.4171H149.371V29.3401H149.408C149.442 29.3401 149.474 29.3247 149.503 29.294C149.532 29.2632 149.557 29.2272 149.577 29.1862C149.596 29.1451 149.611 29.1 149.621 29.0507C149.63 29.0025 149.635 28.9579 149.635 28.9168V24.8144C149.635 24.7785 149.63 24.7375 149.621 24.6913C149.611 24.6451 149.596 24.6015 149.577 24.5604C149.557 24.5194 149.532 24.4845 149.503 24.4558C149.474 24.4281 149.442 24.4142 149.408 24.4142H149.371V24.3372H150.12L151.825 28.5474L153.53 24.3372H154.36V24.4142H154.323C154.284 24.4142 154.25 24.4281 154.22 24.4558C154.191 24.4845 154.165 24.5194 154.144 24.5604C154.121 24.6015 154.105 24.6451 154.095 24.6913C154.086 24.7375 154.081 24.7785 154.081 24.8144V28.9168C154.081 28.9579 154.086 29.0025 154.095 29.0507C154.105 29.1 154.121 29.1451 154.144 29.1862C154.165 29.2272 154.191 29.2632 154.22 29.294C154.25 29.3247 154.284 29.3401 154.323 29.3401H154.36V29.4171H153.316ZM159.569 24.5373C159.207 24.5373 158.892 24.6051 158.624 24.7405C158.358 24.877 158.136 25.0541 157.96 25.2716C157.784 25.4902 157.653 25.7355 157.566 26.0074C157.481 26.2794 157.438 26.5488 157.438 26.8156C157.438 27.1183 157.495 27.4144 157.607 27.7038C157.72 27.9942 157.875 28.2508 158.073 28.4735C158.272 28.6972 158.504 28.8768 158.768 29.0122C159.033 29.1487 159.319 29.217 159.628 29.217C159.716 29.217 159.82 29.2067 159.94 29.1862C160.06 29.1657 160.179 29.1262 160.297 29.0677C160.414 29.0081 160.523 28.9245 160.623 28.8168C160.724 28.709 160.801 28.5679 160.855 28.3934H160.929V29.2478C160.855 29.2478 160.778 29.258 160.696 29.2786C160.616 29.2991 160.527 29.3222 160.429 29.3478C160.302 29.3837 160.16 29.4171 160.006 29.4479C159.852 29.4787 159.689 29.4941 159.518 29.4941C159.092 29.4941 158.717 29.4171 158.394 29.2632C158.07 29.1092 157.801 28.9091 157.585 28.6628C157.37 28.4165 157.208 28.1379 157.1 27.8269C156.993 27.517 156.939 27.203 156.939 26.8849C156.939 26.5667 156.993 26.2512 157.1 25.9382C157.208 25.6252 157.372 25.344 157.593 25.0946C157.813 24.8462 158.09 24.6451 158.423 24.4912C158.756 24.3372 159.148 24.2603 159.599 24.2603C159.76 24.2603 159.906 24.2757 160.035 24.3064C160.165 24.3372 160.282 24.368 160.385 24.3988C160.458 24.4245 160.525 24.4434 160.586 24.4558C160.648 24.4691 160.708 24.4758 160.767 24.4758V25.3301H160.693C160.664 25.1711 160.61 25.0387 160.532 24.933C160.453 24.8283 160.361 24.7477 160.256 24.6913C160.151 24.6348 160.038 24.5948 159.918 24.5712C159.798 24.5486 159.682 24.5373 159.569 24.5373ZM161.56 29.4171V29.3401H161.597C161.636 29.3401 161.671 29.3258 161.7 29.297C161.729 29.2693 161.755 29.2349 161.776 29.1939C161.799 29.1528 161.816 29.1092 161.828 29.063C161.841 29.0169 161.847 28.9733 161.847 28.9322V24.8144C161.847 24.7785 161.841 24.7375 161.828 24.6913C161.816 24.6451 161.799 24.6015 161.776 24.5604C161.755 24.5194 161.729 24.4845 161.7 24.4558C161.671 24.4281 161.636 24.4142 161.597 24.4142H161.56V24.3372H164.389V25.053H164.316C164.306 24.935 164.262 24.8309 164.184 24.7405C164.105 24.6513 163.983 24.6066 163.816 24.6066H162.339V26.5539H163.559C163.672 26.5539 163.766 26.518 163.841 26.4461C163.918 26.3743 163.956 26.2896 163.956 26.1922H164.029V27.1542H163.956C163.956 27.0619 163.919 26.9824 163.846 26.9156C163.772 26.8489 163.677 26.8156 163.559 26.8156H162.339V29.1477H163.948C164.041 29.1477 164.122 29.1246 164.191 29.0784C164.259 29.0323 164.317 28.9768 164.363 28.9122C164.41 28.8486 164.444 28.7793 164.466 28.7044C164.488 28.6305 164.499 28.5679 164.499 28.5166H164.573V29.4171H161.56ZM165.894 29.3401H165.931V29.4171H165.115V29.3401H165.152C165.186 29.3401 165.22 29.3247 165.252 29.294C165.283 29.2632 165.309 29.2272 165.328 29.1862C165.348 29.1451 165.364 29.1 165.377 29.0507C165.389 29.0025 165.394 28.9579 165.394 28.9168V24.8144C165.394 24.7785 165.391 24.7375 165.384 24.6913C165.376 24.6451 165.363 24.6015 165.343 24.5604C165.323 24.5194 165.296 24.4845 165.262 24.4558C165.228 24.4281 165.186 24.4142 165.137 24.4142H165.1V24.3372H165.843L168.51 28.7398V24.8144C168.51 24.7785 168.504 24.7375 168.492 24.6913C168.479 24.6451 168.462 24.6015 168.441 24.5604C168.418 24.5194 168.392 24.4845 168.363 24.4558C168.333 24.4281 168.299 24.4142 168.26 24.4142H168.223V24.3372H169.046V24.4142H169.009C168.97 24.4142 168.936 24.4281 168.907 24.4558C168.877 24.4845 168.852 24.5194 168.83 24.5604C168.808 24.6015 168.791 24.6451 168.782 24.6913C168.772 24.7375 168.767 24.7785 168.767 24.8144V29.4171H168.311L165.652 24.9992V28.9168C165.652 28.9579 165.656 29.0025 165.666 29.0507C165.676 29.1 165.692 29.1451 165.715 29.1862C165.736 29.2272 165.762 29.2632 165.791 29.294C165.821 29.3247 165.855 29.3401 165.894 29.3401ZM171.596 29.3401H171.632V29.4171H170.589V29.3401H170.626C170.665 29.3401 170.699 29.3247 170.729 29.294C170.758 29.2632 170.784 29.2272 170.805 29.1862C170.828 29.1451 170.844 29.1 170.854 29.0507C170.863 29.0025 170.868 28.9579 170.868 28.9168V24.622H170.016C169.938 24.622 169.869 24.64 169.81 24.6759C169.752 24.7118 169.703 24.7565 169.663 24.8098C169.624 24.8642 169.595 24.9232 169.575 24.9868C169.556 25.0515 169.546 25.1146 169.546 25.1762H169.472V24.3372H172.771V25.1762H172.698C172.698 25.1146 172.688 25.0515 172.668 24.9868C172.649 24.9232 172.62 24.8642 172.58 24.8098C172.541 24.7565 172.492 24.7118 172.433 24.6759C172.375 24.64 172.306 24.622 172.228 24.622H171.361V28.9168C171.361 28.9579 171.366 29.0025 171.375 29.0507C171.385 29.1 171.401 29.1451 171.424 29.1862C171.445 29.2272 171.47 29.2632 171.497 29.294C171.524 29.3247 171.557 29.3401 171.596 29.3401ZM173.175 29.4171V29.3401H173.212C173.251 29.3401 173.286 29.3258 173.315 29.297C173.344 29.2693 173.37 29.2349 173.391 29.1939C173.414 29.1528 173.431 29.1092 173.443 29.063C173.456 29.0169 173.462 28.9733 173.462 28.9322V24.8144C173.462 24.7785 173.456 24.7375 173.443 24.6913C173.431 24.6451 173.414 24.6015 173.391 24.5604C173.37 24.5194 173.344 24.4845 173.315 24.4558C173.286 24.4281 173.251 24.4142 173.212 24.4142H173.175V24.3372H176.004V25.053H175.931C175.921 24.935 175.877 24.8309 175.799 24.7405C175.72 24.6513 175.598 24.6066 175.431 24.6066H173.954V26.5539H175.174C175.287 26.5539 175.381 26.518 175.456 26.4461C175.533 26.3743 175.571 26.2896 175.571 26.1922H175.644V27.1542H175.571C175.571 27.0619 175.534 26.9824 175.461 26.9156C175.387 26.8489 175.292 26.8156 175.174 26.8156H173.954V29.1477H175.563C175.657 29.1477 175.737 29.1246 175.806 29.0784C175.874 29.0323 175.932 28.9768 175.978 28.9122C176.025 28.8486 176.059 28.7793 176.081 28.7044C176.103 28.6305 176.115 28.5679 176.115 28.5166H176.188V29.4171H173.175ZM177.738 29.3401H177.775V29.4171H176.738V29.3401H176.774C176.81 29.3401 176.841 29.3247 176.87 29.294C176.899 29.2632 176.925 29.2272 176.948 29.1862C176.969 29.1451 176.985 29.1 176.995 29.0507C177.006 29.0025 177.011 28.9579 177.011 28.9168V24.8144C177.011 24.7785 177.006 24.7375 176.995 24.6913C176.985 24.6451 176.969 24.6015 176.948 24.5604C176.925 24.5194 176.899 24.4845 176.87 24.4558C176.841 24.4281 176.81 24.4142 176.774 24.4142H176.738V24.3372H178.016C178.506 24.3372 178.885 24.4373 179.152 24.6374C179.418 24.8375 179.552 25.1326 179.552 25.5225C179.552 25.7175 179.521 25.8879 179.461 26.0336C179.399 26.1804 179.317 26.3061 179.215 26.4107C179.112 26.5164 178.991 26.6011 178.851 26.6647C178.711 26.7294 178.563 26.7771 178.407 26.8079L178.935 27.6545C179.062 27.8598 179.192 28.0609 179.325 28.258C179.457 28.456 179.586 28.6602 179.713 28.8706C179.749 28.9219 179.787 28.9758 179.828 29.0323C179.869 29.0887 179.913 29.14 179.96 29.1862C180.006 29.2324 180.055 29.2693 180.107 29.297C180.158 29.3258 180.211 29.3401 180.264 29.3401V29.4171H179.95C179.754 29.4171 179.593 29.3668 179.468 29.2662C179.344 29.1667 179.239 29.0502 179.155 28.9168C178.935 28.5782 178.716 28.2344 178.498 27.8854C178.28 27.5365 178.063 27.1927 177.849 26.8541C177.794 26.8489 177.736 26.8423 177.675 26.8341C177.613 26.8269 177.556 26.8182 177.502 26.8079V28.9168C177.502 28.9579 177.507 29.0025 177.518 29.0507C177.527 29.1 177.542 29.1451 177.565 29.1862C177.587 29.2272 177.612 29.2632 177.638 29.294C177.665 29.3247 177.698 29.3401 177.738 29.3401ZM177.612 24.5989H177.502V26.5539H177.538C177.579 26.559 177.641 26.5626 177.727 26.5647C177.813 26.5678 177.919 26.5693 178.045 26.5693C178.148 26.5693 178.258 26.5529 178.373 26.52C178.489 26.4862 178.597 26.4292 178.696 26.3492C178.797 26.2701 178.881 26.1665 178.946 26.0382C179.012 25.9099 179.045 25.7483 179.045 25.5533C179.045 25.3583 179.009 25.1993 178.939 25.0761C178.867 24.953 178.769 24.8555 178.645 24.7836C178.52 24.7118 178.369 24.6631 178.192 24.6374C178.017 24.6118 177.824 24.5989 177.612 24.5989Z" fill="white"/>
</g>
</g>
</g>
</g>
<g clip-path="url(#clip7_37_36)">
<g clip-path="url(#clip8_37_36)">
<path d="M28.159 22.5096C29.1537 21.4666 29.1534 19.7698 28.1581 18.7272C27.7232 18.2723 27.1693 18.0156 26.6007 17.9586L27.6082 16.9029C28.1699 16.3148 28.4794 15.5328 28.4794 14.701C28.4794 13.8692 28.1699 13.0869 27.6082 12.4985C27.0467 11.9104 26.3003 11.5865 25.5062 11.5865C24.7118 11.5865 23.965 11.9107 23.4036 12.4992L19.4223 16.6696L13.0218 9.96495L17.0031 5.79415C18.162 4.5795 18.162 2.60342 17.0031 1.3891C15.8439 0.174774 13.9577 0.1751 12.7985 1.3891L11.7914 2.44409C11.7363 1.8485 11.4918 1.26887 11.0576 0.813703C10.5752 0.308359 9.93418 0.030111 9.25208 0.0297852C9.25177 0.0297852 9.25177 0.0297852 9.25146 0.0297852C8.56967 0.0297852 7.92862 0.308033 7.44652 0.813051L5.94577 2.3848L3.88516 0.226253L0.45381 3.821L2.51442 5.97954L1.01368 7.55129C0.0186719 8.59423 0.0189828 10.2911 1.01399 11.3344C1.43668 11.7771 1.98131 12.0453 2.56916 12.1046L1.56359 13.158C1.00186 13.7461 0.692686 14.528 0.692686 15.3602C0.692686 16.1923 1.00186 16.9746 1.56328 17.563C2.12469 18.1511 2.87149 18.4753 3.66588 18.4753C4.46026 18.4753 5.20706 18.1514 5.76848 17.563L9.67011 13.476L16.0703 20.1803L12.169 24.2674C11.6076 24.8558 11.2984 25.6381 11.2981 26.4702C11.2981 27.3027 11.6076 28.0846 12.169 28.6724C12.7484 29.2794 13.5102 29.5831 14.2713 29.5831C15.0327 29.5831 15.7941 29.2794 16.3742 28.6724L17.3794 27.6194C17.4361 28.2349 17.6923 28.8054 18.115 29.2481C18.6133 29.7695 19.2671 30.0298 19.9215 30.0298C20.5753 30.0298 21.2288 29.7695 21.7265 29.2485L23.2269 27.6767L25.2875 29.8353L28.7186 26.2412L26.6576 24.082L28.159 22.5096ZM1.67432 10.6433C1.0426 9.98124 1.04229 8.90408 1.67369 8.24235L3.83384 5.97954L1.77322 3.821L3.88485 1.60902L5.94546 3.76757L8.10622 1.50476C8.41197 1.18448 8.81881 1.00789 9.25115 1.00789C9.68411 1.00789 10.0913 1.18481 10.3973 1.50541C11.0287 2.16682 11.0284 3.24365 10.397 3.90506L3.96478 10.643C3.65872 10.9636 3.25158 11.1402 2.81893 11.1402C2.38659 11.1402 1.98006 10.9639 1.67432 10.6433ZM9.0104 12.7846L5.10877 16.872C4.7234 17.2753 4.21081 17.4979 3.66588 17.4979C3.12063 17.4979 2.60836 17.2753 2.22329 16.872C1.83792 16.4683 1.62579 15.9313 1.62579 15.3602C1.62579 14.7893 1.83823 14.253 2.22329 13.849L13.4585 2.08016C13.8563 1.66376 14.3786 1.45556 14.9011 1.45556C15.4236 1.45556 15.9459 1.66376 16.3437 2.08016C17.139 2.9136 17.139 4.26965 16.3437 5.10277L11.1587 10.5341L9.0104 12.7846ZM10.3301 12.7846L10.6107 12.4907L12.3624 10.656L18.7626 17.36L17.7527 18.4183L16.7303 19.4893L10.3301 12.7846ZM15.7142 27.981C14.9182 28.8142 13.624 28.8145 12.8284 27.9807C12.4433 27.5777 12.2312 27.0411 12.2312 26.4702C12.2312 25.8991 12.4436 25.3621 12.8287 24.9581L16.7303 20.8714L18.4155 19.1061L24.0636 13.1899C24.449 12.7862 24.9612 12.5637 25.5062 12.5637C26.0511 12.5637 26.5634 12.7859 26.9488 13.1892C27.3341 13.5929 27.5466 14.1299 27.5466 14.7007C27.5466 15.2712 27.3341 15.8075 26.9488 16.2115L15.7142 27.981ZM27.3988 26.2405L25.2872 28.4525L23.2266 26.294L21.0665 28.5568C20.4347 29.2185 19.4065 29.2175 18.7747 28.5558C18.4687 28.2358 18.3004 27.8097 18.3004 27.3564C18.3004 26.9032 18.4693 26.4771 18.7754 26.1561L25.2076 19.4182C25.5236 19.0872 25.9385 18.922 26.3534 18.922C26.7681 18.922 27.183 19.0875 27.4987 19.4176C28.1301 20.0793 28.1304 21.1561 27.4993 21.8179L25.3385 24.0807L27.3988 26.2405Z" fill="#FF0336"/>
</g>
</g>
</g>
<defs>
<clipPath id="clip0_37_36">
<rect width="180" height="30" fill="white" transform="translate(0.267578 0.0297852)"/>
</clipPath>
<clipPath id="clip1_37_36">
<rect width="147.044" height="28.9436" fill="white" transform="translate(33.2236 0.558105)"/>
</clipPath>
<clipPath id="clip2_37_36">
<rect width="147.044" height="28.9436" fill="white" transform="translate(33.2236 0.558105)"/>
</clipPath>
<clipPath id="clip3_37_36">
<rect width="147.044" height="19.1628" fill="white" transform="translate(33.2236 0.558105)"/>
</clipPath>
<clipPath id="clip4_37_36">
<rect width="147.044" height="19.1628" fill="white" transform="translate(33.2236 0.558105)"/>
</clipPath>
<clipPath id="clip5_37_36">
<rect width="69.846" height="5.25689" fill="white" transform="translate(110.422 24.2449)"/>
</clipPath>
<clipPath id="clip6_37_36">
<rect width="69.846" height="5.25689" fill="white" transform="translate(110.422 24.2449)"/>
</clipPath>
<clipPath id="clip7_37_36">
<rect width="28.6372" height="30" fill="white" transform="translate(0.267578 0.0297852)"/>
</clipPath>
<clipPath id="clip8_37_36">
<rect width="28.6372" height="30" fill="white" transform="translate(0.267578 0.0297852)"/>
</clipPath>
</defs>
</svg>
